<svg id="Layer_1" data-name="Layer 1" xmlns="http://www.w3.org/2000/svg" viewBox="0 0 1024 576"><defs><style>.cls-1{fill:#5abfc3;}.cls-2,.cls-4{fill:#218fbf;}.cls-3{fill:#facf12;}.cls-4{opacity:0.58;}.cls-5{fill:#e94432;}.cls-6{fill:#54246b;}.cls-7{fill:#fff;}</style></defs><title>KASPPER</title><path class="cls-1" d="M390.87,502.44c-102.5-43.13-147-154.33-162.37-243.28-.51,1.25-1,2.48-1.53,3.74-17.6,45.35-19.89,267.89,154.09,308.18C432.36,583,483.44,572.15,528,550.8a320.71,320.71,0,0,1-35.29-25.64C456.88,523.29,422.1,515.58,390.87,502.44Z"/><path class="cls-1" d="M534.64,119.06c23.46-9.52,46.45-14.84,66.59-14.51,116.42,1.89,190.58,113.59,196.71,212.83C841.61,169.53,666.34,40.19,603.79,17.76c-154.3-55.33-346,27.67-377.52,124.32-5.69,17.45-7.08,63.18,2.23,117.08C274.71,144,375.48,68.86,534.64,119.06Z"/><path class="cls-2" d="M390.87,502.44c31.23,13.14,66,20.85,101.84,22.72-62.47-52-121.46-136.39-121.46-217.08,0-76.94,84.43-157,163.39-189-159.16-50.2-259.93,25-306.14,140.1C243.86,348.11,288.37,459.31,390.87,502.44Z"/><path class="cls-3" d="M794.65,327.52C755.35,436,672.2,496.29,583,517.15a322.63,322.63,0,0,1-55,33.65c25.54,15.92,49.89,25.2,69.13,25.2,82.7,0,165-85.11,195.42-198.58,5-18.68,6.68-39.09,5.39-60C796.94,320.75,795.88,324.13,794.65,327.52Z"/><path class="cls-4" d="M492.71,525.16A320.71,320.71,0,0,0,528,550.8a322.63,322.63,0,0,0,55-33.65A323.74,323.74,0,0,1,492.71,525.16Z"/><path class="cls-5" d="M601.23,104.55c-20.14-.33-43.13,5-66.59,14.51,2.51.79,5,1.51,7.51,2.36C606.57,143.1,720,239.28,665.42,417c-8.61,28.06-39.33,67.55-82.42,100.16C672.2,496.29,755.35,436,794.65,327.52c1.23-3.39,2.29-6.77,3.29-10.14C791.81,218.14,717.65,106.44,601.23,104.55Z"/><path class="cls-6" d="M665.42,417C720,239.28,606.57,143.1,542.15,121.42c-2.53-.85-5-1.57-7.51-2.36-79,32-163.39,112.08-163.39,189,0,80.69,59,165.07,121.46,217.08a323.74,323.74,0,0,0,90.29-8C626.09,484.54,656.81,445.05,665.42,417Z"/><path class="cls-7" d="M482.48,440.48H420.43a6.11,6.11,0,0,1,0-12.21h55.95V395.21a6.1,6.1,0,0,1,6.1-6.1h61V354.52a6.1,6.1,0,0,1,6.1-6.1h62.56V315.87a6.12,6.12,0,0,1,6.11-6.11h55.44a6.11,6.11,0,0,1,0,12.21H624.39v32.55a6.11,6.11,0,0,1-6.1,6.11H555.73v34.58a6.11,6.11,0,0,1-6.11,6.11h-61v33.06A6.1,6.1,0,0,1,482.48,440.48Z"/><circle class="cls-7" cx="457.93" cy="260.51" r="15.76"/><circle class="cls-7" cx="534.89" cy="205.88" r="16.28"/><path class="cls-7" d="M649.75,288.25,623,268.82a6,6,0,0,0-.23-1.1L608.2,233a6.45,6.45,0,0,0-1.31-2l-23.3-23.71,14.16-6.71,20.32,10.85A6.3,6.3,0,1,0,624,200.32L600.89,188a6.32,6.32,0,0,0-5.67-.13L562.79,203.2a6.34,6.34,0,0,0-2.37,2L532,243.65l-21.81,16a6.3,6.3,0,1,0,7.45,10.17l22.59-16.55a6.08,6.08,0,0,0,1.34-1.34l15.31-20.71,18.51,16.36L578,265.17l-7.62,20.52a8.59,8.59,0,0,0-.52,2.6l-1.44,38a8.41,8.41,0,0,0,8.08,8.72h.32a8.4,8.4,0,0,0,8.4-8.08l1.39-36.61L598,259.63,609.2,278.7a8.42,8.42,0,0,0,2.3,2.53l28.36,20.62a8.41,8.41,0,0,0,9.89-13.6Z"/><path class="cls-7" d="M510.89,368.74l-12.43-33.09a8.39,8.39,0,0,0-7.07-5.41l-21-1.09a2,2,0,0,1-1.9-2.24l3.5-31.54a6.6,6.6,0,0,1,3.66-5.2l26.18-12.8a6.53,6.53,0,0,0,4.24-7.22,6.3,6.3,0,0,0-8.44-4.67l-46.77,17.94A58.25,58.25,0,0,0,437,291l-6.22,4.64A57.91,57.91,0,0,0,419.31,307a39.66,39.66,0,0,0-6.73,14l-3,11.56a6.31,6.31,0,0,0,12.2,3.2l3-11.57a27.87,27.87,0,0,1,5.34-10.58,44.71,44.71,0,0,1,6.19-6.19v26.25l-5.13,43.9L413.42,404.2a8.65,8.65,0,0,0,.8,10.89,8.41,8.41,0,0,0,13-1.25l19.09-28.54a8.47,8.47,0,0,0,1.36-3.69L451.56,348a2.51,2.51,0,0,1,2.53-2.2l27.66.57a4.17,4.17,0,0,1,3.81,2.7l9.43,25.1a8.73,8.73,0,0,0,10.17,5.62A8.4,8.4,0,0,0,510.89,368.74Z"/></svg>